HIERARCHY
ROOT Hips
{
	OFFSET 0.000000 0.000000 0.000000
	CHANNELS 6 Xposition Yposition Zposition Xrotation Yrotation Zrotation
	JOINT LeftUpLeg_virtual
	{
		OFFSET 0.000000 0.000000 0.000000
		CHANNELS 3 Xrotation Yrotation Zrotation
		JOINT LeftUpLeg
		{
			OFFSET 11.394100 -6.187798 -0.413800
			CHANNELS 3 Xrotation Yrotation Zrotation
			JOINT LeftLeg
			{
				OFFSET 0.430247 -32.302673 3.732800
				CHANNELS 3 Xrotation Yrotation Zrotation
				JOINT LeftFoot
				{
					OFFSET -0.430247 -48.264931 -6.423300
					CHANNELS 3 Xrotation Yrotation Zrotation
					JOINT LeftToeBase
					{
						OFFSET 4.230900 -16.068199 23.438400
						CHANNELS 3 Xrotation Yrotation Zrotation
						JOINT LeftToe_End
						{
							OFFSET 4.510700 0.695400 19.974600
							CHANNELS 3 Xrotation Yrotation Zrotation
							End Site
							{
								OFFSET 0 0 0
							}
						}
					}
				}
			}
		}
	}
	JOINT RightUpLeg_virtual
	{
		OFFSET 0.000000 0.000000 0.000000
		CHANNELS 3 Xrotation Yrotation Zrotation
		JOINT RightUpLeg
		{
			OFFSET -11.333700 -6.187798 -0.413800
			CHANNELS 3 Xrotation Yrotation Zrotation
			JOINT RightLeg
			{
				OFFSET -0.430392 -32.302628 3.733000
				CHANNELS 3 Xrotation Yrotation Zrotation
				JOINT RightFoot
				{
					OFFSET 0.430392 -48.264973 -6.423500
					CHANNELS 3 Xrotation Yrotation Zrotation
					JOINT RightToeBase
					{
						OFFSET -4.230900 -16.068199 23.438400
						CHANNELS 3 Xrotation Yrotation Zrotation
						JOINT RightToe_End
						{
							OFFSET -4.510700 0.695400 19.974600
							CHANNELS 3 Xrotation Yrotation Zrotation
							End Site
							{
								OFFSET 0 0 0
							}
						}
					}
				}
			}
		}
	}
	JOINT Spine_virtual
	{
		OFFSET 0.000000 0.000000 0.000000
		CHANNELS 3 Xrotation Yrotation Zrotation
		JOINT Spine
		{
			OFFSET -0.002400 12.777504 0.315300
			CHANNELS 3 Xrotation Yrotation Zrotation
			JOINT Spine1
			{
				OFFSET -0.002067 5.816869 0.032633
				CHANNELS 3 Xrotation Yrotation Zrotation
				JOINT Spine1_split
				{
					OFFSET -0.002067 5.816869 0.032633
					CHANNELS 3 Xrotation Yrotation Zrotation
					JOINT Spine2
					{
						OFFSET -0.002067 5.816869 0.032633
						CHANNELS 3 Xrotation Yrotation Zrotation
						JOINT Neck_virtual
						{
							OFFSET 0.000000 0.000000 0.000000
							CHANNELS 3 Xrotation Yrotation Zrotation
							JOINT Neck
							{
								OFFSET -0.003700 21.199493 -0.826900
								CHANNELS 3 Xrotation Yrotation Zrotation
								JOINT Head
								{
									OFFSET 0.000000 20.442200 4.834800
									CHANNELS 3 Xrotation Yrotation Zrotation
									JOINT HeadTop_End
									{
										OFFSET 0.000000 34.668396 4.968400
										CHANNELS 3 Xrotation Yrotation Zrotation
										End Site
										{
											OFFSET 0 0 0
										}
									}
								}
							}
						}
						JOINT LeftShoulder_virtual
						{
							OFFSET 0.000000 0.000000 0.000000
							CHANNELS 3 Xrotation Yrotation Zrotation
							JOINT LeftShoulder
							{
								OFFSET 3.288150 8.794197 -1.372250
								CHANNELS 3 Xrotation Yrotation Zrotation
								JOINT LeftShoulder_split
								{
									OFFSET 3.288150 8.794197 -1.372250
									CHANNELS 3 Xrotation Yrotation Zrotation
									JOINT LeftArm
									{
										OFFSET 11.953299 -2.279007 -0.146200
										CHANNELS 3 Xrotation Yrotation Zrotation
										JOINT LeftForeArm
										{
											OFFSET 18.448900 0.000000 0.000000
											CHANNELS 3 Xrotation Yrotation Zrotation
											JOINT LeftHand
											{
												OFFSET 29.527798 0.000000 0.000000
												CHANNELS 3 Xrotation Yrotation Zrotation
												End Site
												{
													OFFSET 0 0 0
												}
											}
										}
									}
								}
							}
						}
						JOINT RightShoulder_virtual
						{
							OFFSET 0.000000 0.000000 0.000000
							CHANNELS 3 Xrotation Yrotation Zrotation
							JOINT RightShoulder
							{
								OFFSET -3.249400 8.794197 -1.372250
								CHANNELS 3 Xrotation Yrotation Zrotation
								JOINT RightShoulder_split
								{
									OFFSET -3.249400 8.794197 -1.372250
									CHANNELS 3 Xrotation Yrotation Zrotation
									JOINT RightArm
									{
										OFFSET -11.953299 -2.279007 -0.146200
										CHANNELS 3 Xrotation Yrotation Zrotation
										JOINT RightForeArm
										{
											OFFSET -18.448900 0.000000 0.000000
											CHANNELS 3 Xrotation Yrotation Zrotation
											JOINT RightHand
											{
												OFFSET -29.527802 0.000000 0.000000
												CHANNELS 3 Xrotation Yrotation Zrotation
												End Site
												{
													OFFSET 0 0 0
												}
											}
										}
									}
								}
							}
						}
					}
				}
			}
		}
	}
}
MOTION
Frames: 4
Frame Time: 0.03333333
-0.119109 97.682877 1.632393 0.000000 0.000000 0.000000 35.990872 -14.593789 1.060874 -86.014232 2.772460 28.893869 83.107536 -5.186084 -1.288742 17.877593 -14.939473 1.555293 9.674080 0.096855 -1.792889 0.000000 0.000000 0.000000 33.048509 -20.928630 4.134945 -57.121029 3.904423 4.437894 31.877312 4.728038 -3.403958 12.849458 -5.933924 -14.984054 -10.327950 6.660167 -1.869586 0.000000 0.000000 0.000000 37.096598 -10.709677 2.359424 18.503532 3.754327 -7.676453 -6.196857 1.894647 1.217339 1.799216 0.118652 0.252089 0.000000 0.000000 0.000000 -8.572922 -0.919104 3.640192 -0.292721 7.169249 -2.217553 -21.390686 12.137127 -8.161890 0.000000 0.000000 0.000000 -8.591785 -0.553258 3.114050 1.776171 -4.792564 11.100533 -2.234612 -7.313126 -6.000226 -66.222126 -2.887386 -23.258493 173.817004 -78.467112 174.135891 0.000000 0.000000 0.000000 -8.762669 -1.217318 4.460295 5.121778 16.849371 1.130766 -4.985911 1.117251 2.746508 -15.467431 1.053853 46.675932 2.708099 68.452170 -6.297729 0.000000 0.000000 0.000000 
-1.206143 98.477402 12.825672 0.000000 0.000000 0.000000 32.671544 -15.121842 0.438923 -87.905088 3.861255 28.928307 71.739724 -2.749952 -2.628917 16.338613 -14.525782 0.634610 8.068697 0.007278 -1.001011 0.000000 0.000000 0.000000 31.634994 -24.830374 5.241322 -50.074678 5.199330 2.252076 32.345392 4.689268 -3.398544 17.855045 -3.756308 -8.218744 -14.430685 6.317131 -1.984801 0.000000 0.000000 0.000000 36.731589 -11.588997 2.184623 18.026662 5.205573 -7.760906 -6.444657 2.309000 1.293821 0.075888 1.141747 -0.379131 0.000000 0.000000 0.000000 -7.898180 -0.544822 3.846741 -0.606089 7.178261 -2.040130 -21.048768 11.555835 -7.718661 0.000000 0.000000 0.000000 -8.186943 -0.014301 3.475885 1.502639 -3.316838 9.986619 0.013572 -6.375906 -5.328974 -63.119458 -0.322077 -22.966738 163.786966 -78.966897 163.910852 0.000000 0.000000 0.000000 -8.887838 -0.779928 4.225350 5.067191 18.364173 0.665861 -5.957046 0.997283 0.037631 -18.762509 7.758017 45.364730 8.489535 74.620513 -12.477095 0.000000 0.000000 0.000000 
-2.215722 99.848892 26.706545 0.000000 0.000000 0.000000 29.734617 -15.229918 1.168372 -85.010802 5.288674 25.484983 58.623077 1.247541 -3.040265 15.234546 -12.176328 -0.270983 5.878664 -0.348584 -0.465952 0.000000 0.000000 0.000000 30.382509 -24.735131 5.935547 -34.783442 8.022268 -0.393852 28.827418 3.631982 -4.079863 22.323789 -1.952019 -1.238757 -13.171908 5.893148 -1.250501 0.000000 0.000000 0.000000 34.413935 -11.447159 2.157108 18.734219 7.613583 -8.865419 -6.068357 3.038347 1.503197 -0.604404 0.624065 0.761164 0.000000 0.000000 0.000000 -6.731174 0.284310 4.157911 -2.075880 6.266079 -1.490469 -20.642546 9.601793 -7.674758 0.000000 0.000000 0.000000 -7.363623 0.957349 3.800586 1.179937 -1.461508 6.980176 1.660216 -4.903351 -3.160210 -57.648730 4.246606 -23.052435 143.382705 -76.460443 143.512369 0.000000 0.000000 0.000000 -8.219019 0.207625 3.930360 5.136960 20.524377 0.638459 -5.837945 -0.259305 -2.235594 -21.885915 14.099700 42.521138 22.012291 78.461976 -26.578199 0.000000 0.000000 0.000000 
-2.781918 100.567818 40.701099 0.000000 0.000000 0.000000 26.908133 -14.330188 2.888065 -78.317046 6.437607 19.277058 47.954434 5.395290 -1.936335 13.150714 -8.373657 -0.489659 6.226672 -0.877529 -0.841835 0.000000 0.000000 0.000000 29.524671 -21.046301 6.251023 -16.734742 10.481237 -3.437387 24.163679 1.491228 -5.412049 24.739978 -1.791573 3.459687 -7.966599 5.627865 -0.043360 0.000000 0.000000 0.000000 30.118368 -10.161862 2.376142 21.052651 10.158128 -10.708385 -5.202598 3.706752 1.780113 1.140475 -1.481886 3.206002 0.000000 0.000000 0.000000 -5.441800 1.137288 4.499707 -4.648228 4.819846 -0.576860 -20.256244 7.012261 -7.949205 0.000000 0.000000 0.000000 -6.510319 1.829780 3.889567 1.035213 0.258761 2.572666 3.706349 -3.234092 -0.842897 -50.088379 9.836473 -25.015064 131.459258 -70.005819 131.621420 0.000000 0.000000 0.000000 -6.971252 1.193868 3.597540 4.997375 22.600913 1.929951 -5.364443 -1.822607 -3.958714 -23.046554 17.088624 38.729225 37.195513 79.218453 -42.471417 0.000000 0.000000 0.000000 
